<svg width="14" height="14" viewBox="0 0 14 14" fill="none" xmlns="http://www.w3.org/2000/svg">
<path d="M7.46424 1.7232L11.4017 5.6607C11.525 5.78399 11.5943 5.9512 11.5943 6.12555C11.5943 6.2999 11.525 6.46711 11.4017 6.59039C11.2785 6.71367 11.1112 6.78293 10.9369 6.78293C10.7625 6.78293 10.5953 6.71367 10.4721 6.59039L7.65619 3.77344L7.65619 11.8125C7.65619 11.9865 7.58705 12.1535 7.46398 12.2765C7.34091 12.3996 7.17399 12.4688 6.99994 12.4688C6.82589 12.4688 6.65897 12.3996 6.5359 12.2765C6.41283 12.1535 6.34369 11.9865 6.34369 11.8125L6.34369 3.77344L3.52619 6.5893C3.40291 6.71258 3.2357 6.78184 3.06135 6.78184C2.887 6.78184 2.71979 6.71258 2.59651 6.5893C2.47322 6.46601 2.40396 6.2988 2.40396 6.12445C2.40396 5.9501 2.47322 5.78289 2.59651 5.65961L6.53401 1.72211C6.59506 1.66092 6.66759 1.61239 6.74745 1.57931C6.82731 1.54624 6.91291 1.52926 6.99935 1.52936C7.08579 1.52947 7.17135 1.54664 7.25113 1.57991C7.33091 1.61317 7.40333 1.66187 7.46424 1.7232Z" fill="#42BD53"/>
</svg>
