<svg width="14" height="14" viewBox="0 0 14 14" fill="none" xmlns="http://www.w3.org/2000/svg">
<path d="M7.46427 1.7232L11.4018 5.6607C11.5251 5.78399 11.5943 5.9512 11.5943 6.12555C11.5943 6.2999 11.5251 6.46711 11.4018 6.59039C11.2785 6.71367 11.1113 6.78293 10.9369 6.78293C10.7626 6.78293 10.5954 6.71367 10.4721 6.59039L7.65622 3.77344L7.65622 11.8125C7.65622 11.9865 7.58708 12.1535 7.46401 12.2765C7.34094 12.3996 7.17402 12.4688 6.99997 12.4688C6.82593 12.4688 6.65901 12.3996 6.53593 12.2765C6.41286 12.1535 6.34372 11.9865 6.34372 11.8125L6.34372 3.77344L3.52622 6.5893C3.40294 6.71258 3.23573 6.78184 3.06138 6.78184C2.88703 6.78184 2.71982 6.71258 2.59654 6.5893C2.47325 6.46601 2.40399 6.2988 2.40399 6.12445C2.40399 5.9501 2.47325 5.78289 2.59654 5.65961L6.53404 1.72211C6.59509 1.66092 6.66762 1.61239 6.74748 1.57931C6.82734 1.54624 6.91294 1.52926 6.99938 1.52936C7.08582 1.52947 7.17138 1.54664 7.25116 1.57991C7.33094 1.61317 7.40337 1.66187 7.46427 1.7232Z" fill="#42BD53"/>
</svg>
