<svg width="24" height="24" viewBox="0 0 24 24" fill="none" xmlns="http://www.w3.org/2000/svg">
<path d="M20.2959 9.79594L12.7959 17.2959C12.6914 17.4008 12.5672 17.484 12.4304 17.5408C12.2937 17.5976 12.1471 17.6268 11.999 17.6268C11.851 17.6268 11.7043 17.5976 11.5676 17.5408C11.4309 17.484 11.3067 17.4008 11.2021 17.2959L3.70215 9.79594C3.4908 9.58459 3.37207 9.29795 3.37207 8.99906C3.37207 8.70018 3.4908 8.41353 3.70215 8.20219C3.91349 7.99084 4.20014 7.87211 4.49902 7.87211C4.79791 7.87211 5.08455 7.99084 5.2959 8.20219L12 14.9062L18.704 8.20125C18.9154 7.98991 19.202 7.87117 19.5009 7.87117C19.7998 7.87117 20.0864 7.98991 20.2978 8.20125C20.5091 8.4126 20.6278 8.69924 20.6278 8.99813C20.6278 9.29701 20.5091 9.58366 20.2978 9.795L20.2959 9.79594Z" fill="#16161D"/>
</svg>
