<svg width="22" height="16" viewBox="0 0 22 16" fill="none" xmlns="http://www.w3.org/2000/svg">
<rect y="0.142853" width="22" height="15.7143" rx="1.57143" fill="white"/>
<mask id="mask0_203_1611" style="mask-type:luminance" maskUnits="userSpaceOnUse" x="0" y="0" width="22" height="16">
<rect y="0.142853" width="22" height="15.7143" rx="1.57143" fill="white"/>
</mask>
<g mask="url(#mask0_203_1611)">
<path fill-rule="evenodd" clip-rule="evenodd" d="M22 0.142853H0V1.19047H22V0.142853ZM22 2.23811H0V3.28573H22V2.23811ZM0 4.33331H22V5.38093H0V4.33331ZM22 6.42857H0V7.47619H22V6.42857ZM0 8.52382H22V9.57144H0V8.52382ZM22 10.619H0V11.6666H22V10.619ZM0 12.7143H22V13.7619H0V12.7143ZM22 14.8095H0V15.8572H22V14.8095Z" fill="#D02F44"/>
<rect y="0.142853" width="9.42857" height="7.33333" fill="#46467F"/>
<g filter="url(#filter0_d_203_1611)">
<path fill-rule="evenodd" clip-rule="evenodd" d="M4.19046 1.71427C4.19046 2.00356 3.95594 2.23808 3.66665 2.23808C3.37736 2.23808 3.14284 2.00356 3.14284 1.71427C3.14284 1.42498 3.37736 1.19046 3.66665 1.19046C3.95594 1.19046 4.19046 1.42498 4.19046 1.71427ZM2.09545 1.71427C2.09545 2.00357 1.86094 2.23808 1.57164 2.23808C1.28235 2.23808 1.04783 2.00357 1.04783 1.71427C1.04783 1.42498 1.28235 1.19046 1.57164 1.19046C1.86094 1.19046 2.09545 1.42498 2.09545 1.71427ZM5.76214 2.23808C6.05143 2.23808 6.28595 2.00356 6.28595 1.71427C6.28595 1.42498 6.05143 1.19046 5.76214 1.19046C5.47285 1.19046 5.23833 1.42498 5.23833 1.71427C5.23833 2.00356 5.47285 2.23808 5.76214 2.23808ZM8.38106 1.71427C8.38106 2.00356 8.14655 2.23808 7.85725 2.23808C7.56796 2.23808 7.33344 2.00356 7.33344 1.71427C7.33344 1.42498 7.56796 1.19046 7.85725 1.19046C8.14655 1.19046 8.38106 1.42498 8.38106 1.71427ZM2.61929 3.28568C2.90858 3.28568 3.1431 3.05116 3.1431 2.76187C3.1431 2.47258 2.90858 2.23806 2.61929 2.23806C2.32999 2.23806 2.09548 2.47258 2.09548 2.76187C2.09548 3.05116 2.32999 3.28568 2.61929 3.28568ZM5.23821 2.76187C5.23821 3.05116 5.00369 3.28568 4.7144 3.28568C4.4251 3.28568 4.19059 3.05116 4.19059 2.76187C4.19059 2.47258 4.4251 2.23806 4.7144 2.23806C5.00369 2.23806 5.23821 2.47258 5.23821 2.76187ZM6.80951 3.28568C7.0988 3.28568 7.33332 3.05116 7.33332 2.76187C7.33332 2.47258 7.0988 2.23806 6.80951 2.23806C6.52021 2.23806 6.2857 2.47258 6.2857 2.76187C6.2857 3.05116 6.52021 3.28568 6.80951 3.28568ZM8.38106 3.80952C8.38106 4.09882 8.14655 4.33333 7.85725 4.33333C7.56796 4.33333 7.33344 4.09882 7.33344 3.80952C7.33344 3.52023 7.56796 3.28571 7.85725 3.28571C8.14655 3.28571 8.38106 3.52023 8.38106 3.80952ZM5.76214 4.33333C6.05143 4.33333 6.28595 4.09882 6.28595 3.80952C6.28595 3.52023 6.05143 3.28571 5.76214 3.28571C5.47285 3.28571 5.23833 3.52023 5.23833 3.80952C5.23833 4.09882 5.47285 4.33333 5.76214 4.33333ZM4.19046 3.80952C4.19046 4.09882 3.95594 4.33333 3.66665 4.33333C3.37736 4.33333 3.14284 4.09882 3.14284 3.80952C3.14284 3.52023 3.37736 3.28571 3.66665 3.28571C3.95594 3.28571 4.19046 3.52023 4.19046 3.80952ZM1.57154 4.33333C1.86083 4.33333 2.09535 4.09882 2.09535 3.80952C2.09535 3.52023 1.86083 3.28571 1.57154 3.28571C1.28225 3.28571 1.04773 3.52023 1.04773 3.80952C1.04773 4.09882 1.28225 4.33333 1.57154 4.33333ZM3.1431 4.85713C3.1431 5.14642 2.90858 5.38094 2.61929 5.38094C2.32999 5.38094 2.09548 5.14642 2.09548 4.85713C2.09548 4.56783 2.32999 4.33332 2.61929 4.33332C2.90858 4.33332 3.1431 4.56783 3.1431 4.85713ZM4.7144 5.38094C5.00369 5.38094 5.23821 5.14642 5.23821 4.85713C5.23821 4.56783 5.00369 4.33332 4.7144 4.33332C4.4251 4.33332 4.19059 4.56783 4.19059 4.85713C4.19059 5.14642 4.4251 5.38094 4.7144 5.38094ZM7.33332 4.85713C7.33332 5.14642 7.0988 5.38094 6.80951 5.38094C6.52021 5.38094 6.2857 5.14642 6.2857 4.85713C6.2857 4.56783 6.52021 4.33332 6.80951 4.33332C7.0988 4.33332 7.33332 4.56783 7.33332 4.85713ZM7.85725 6.42854C8.14655 6.42854 8.38106 6.19402 8.38106 5.90473C8.38106 5.61544 8.14655 5.38092 7.85725 5.38092C7.56796 5.38092 7.33344 5.61544 7.33344 5.90473C7.33344 6.19402 7.56796 6.42854 7.85725 6.42854ZM6.28595 5.90473C6.28595 6.19402 6.05143 6.42854 5.76214 6.42854C5.47285 6.42854 5.23833 6.19402 5.23833 5.90473C5.23833 5.61544 5.47285 5.38092 5.76214 5.38092C6.05143 5.38092 6.28595 5.61544 6.28595 5.90473ZM3.66665 6.42854C3.95594 6.42854 4.19046 6.19402 4.19046 5.90473C4.19046 5.61544 3.95594 5.38092 3.66665 5.38092C3.37736 5.38092 3.14284 5.61544 3.14284 5.90473C3.14284 6.19402 3.37736 6.42854 3.66665 6.42854ZM2.09535 5.90473C2.09535 6.19402 1.86083 6.42854 1.57154 6.42854C1.28225 6.42854 1.04773 6.19402 1.04773 5.90473C1.04773 5.61544 1.28225 5.38092 1.57154 5.38092C1.86083 5.38092 2.09535 5.61544 2.09535 5.90473Z" fill="url(#paint0_linear_203_1611)"/>
</g>
</g>
<defs>
<filter id="filter0_d_203_1611" x="1.04773" y="1.19046" width="7.33337" height="6.02378" filterUnits="userSpaceOnUse" color-interpolation-filters="sRGB">
<feFlood flood-opacity="0" result="BackgroundImageFix"/>
<feColorMatrix in="SourceAlpha" type="matrix" values="0 0 0 0 0 0 0 0 0 0 0 0 0 0 0 0 0 0 127 0" result="hardAlpha"/>
<feOffset dy="0.785714"/>
<feColorMatrix type="matrix" values="0 0 0 0 0 0 0 0 0 0 0 0 0 0 0 0 0 0 0.06 0"/>
<feBlend mode="normal" in2="BackgroundImageFix" result="effect1_dropShadow_203_1611"/>
<feBlend mode="normal" in="SourceGraphic" in2="effect1_dropShadow_203_1611" result="shape"/>
</filter>
<linearGradient id="paint0_linear_203_1611" x1="1.04773" y1="1.19046" x2="1.04773" y2="6.42856" gradientUnits="userSpaceOnUse">
<stop stop-color="white"/>
<stop offset="1" stop-color="#F0F0F0"/>
</linearGradient>
</defs>
</svg>
