<svg width="20" height="20" viewBox="0 0 20 20" fill="none" xmlns="http://www.w3.org/2000/svg">
<path d="M18.3039 3.74297C18.1814 3.46613 17.9812 3.23082 17.7275 3.06564C17.4739 2.90045 17.1777 2.81251 16.875 2.8125H3.12497C2.82231 2.81253 2.52617 2.90046 2.27254 3.06561C2.01891 3.23075 1.8187 3.46601 1.69624 3.74279C1.57378 4.01957 1.53434 4.32595 1.58271 4.62472C1.63108 4.92349 1.76518 5.20178 1.96872 5.42578L1.9781 5.43672L7.18747 10.9961V16.875C7.18743 17.1579 7.26418 17.4355 7.40954 17.6781C7.5549 17.9208 7.76342 18.1195 8.01284 18.2529C8.26226 18.3864 8.54323 18.4496 8.82578 18.4359C9.10833 18.4222 9.38184 18.332 9.61716 18.175L12.1172 16.5086C12.3312 16.3658 12.5067 16.1723 12.628 15.9454C12.7493 15.7185 12.8126 15.4651 12.8125 15.2078V10.9961L18.0211 5.43672L18.0304 5.42578C18.2341 5.2019 18.3684 4.92369 18.4169 4.62495C18.4654 4.32622 18.4262 4.01981 18.3039 3.74297ZM11.3601 9.80391C11.0881 10.0932 10.9369 10.4755 10.9375 10.8727V15.0406L9.06247 16.2906V10.8727C9.06303 10.4755 8.91184 10.0932 8.63981 9.80391L3.84606 4.6875H16.1539L11.3601 9.80391Z" fill="#A8A8BD"/>
</svg>
