<svg width="24" height="24" viewBox="0 0 24 24" fill="none" xmlns="http://www.w3.org/2000/svg">
<path d="M11.7356 14.7131C12.6779 13.9211 13.3537 12.8585 13.6716 11.6694C13.9894 10.4802 13.9338 9.22209 13.5123 8.06562C13.0908 6.90915 12.3239 5.91028 11.3154 5.20449C10.307 4.4987 9.10591 4.12013 7.87502 4.12013C6.64414 4.12013 5.44304 4.4987 4.43461 5.20449C3.42618 5.91028 2.65922 6.90915 2.23774 8.06562C1.81626 9.22209 1.76066 10.4802 2.07848 11.6694C2.3963 12.8585 3.07216 13.9211 4.0144 14.7131C2.54307 15.3784 1.26801 16.4116 0.312212 17.7131C0.135677 17.9537 0.0619346 18.2545 0.107207 18.5494C0.15248 18.8444 0.313058 19.1092 0.553618 19.2858C0.794178 19.4623 1.09501 19.5361 1.38994 19.4908C1.68487 19.4455 1.94974 19.2849 2.12627 19.0444C2.78791 18.1407 3.65324 17.4058 4.65206 16.8992C5.65089 16.3926 6.75507 16.1286 7.87502 16.1286C8.99498 16.1286 10.0992 16.3926 11.098 16.8992C12.0968 17.4058 12.9621 18.1407 13.6238 19.0444C13.8003 19.2851 14.0652 19.4458 14.3602 19.4911C14.6553 19.5365 14.9562 19.4628 15.1969 19.2863C15.4376 19.1097 15.5983 18.8448 15.6436 18.5498C15.689 18.2548 15.6153 17.9538 15.4388 17.7131C14.4824 16.4118 13.2071 15.3786 11.7356 14.7131ZM4.12502 10.125C4.12502 9.38332 4.34496 8.6583 4.75701 8.04161C5.16907 7.42493 5.75474 6.94428 6.43996 6.66045C7.12519 6.37662 7.87918 6.30236 8.60661 6.44705C9.33404 6.59175 10.0022 6.9489 10.5267 7.47335C11.0511 7.9978 11.4083 8.66598 11.553 9.39341C11.6977 10.1208 11.6234 10.8748 11.3396 11.5601C11.0557 12.2453 10.5751 12.831 9.95841 13.243C9.34173 13.6551 8.6167 13.875 7.87502 13.875C6.88046 13.875 5.92664 13.4799 5.22337 12.7767C4.52011 12.0734 4.12502 11.1196 4.12502 10.125ZM23.4469 19.2816C23.3278 19.3691 23.1926 19.4323 23.0491 19.4675C22.9056 19.5028 22.7565 19.5094 22.6104 19.487C22.4643 19.4647 22.3241 19.4137 22.1977 19.3371C22.0713 19.2605 21.9612 19.1598 21.8738 19.0406C21.2105 18.1387 20.3448 17.4051 19.3464 16.8987C18.3479 16.3923 17.2446 16.1273 16.125 16.125C15.8267 16.125 15.5405 16.0065 15.3295 15.7955C15.1186 15.5845 15 15.2984 15 15C15 14.7016 15.1186 14.4155 15.3295 14.2045C15.5405 13.9935 15.8267 13.875 16.125 13.875C16.6772 13.8744 17.2224 13.7518 17.7217 13.516C18.221 13.2803 18.6621 12.9372 19.0134 12.5113C19.3648 12.0853 19.6177 11.5871 19.7542 11.0521C19.8907 10.5171 19.9074 9.9585 19.8031 9.41629C19.6987 8.87409 19.4759 8.36162 19.1506 7.91549C18.8252 7.46936 18.4054 7.10058 17.9211 6.83548C17.4367 6.57038 16.8998 6.41552 16.3487 6.38194C15.7975 6.34837 15.2458 6.43691 14.7328 6.64125C14.5954 6.69751 14.4482 6.72602 14.2998 6.72512C14.1513 6.72423 14.0045 6.69395 13.8678 6.63604C13.731 6.57813 13.6071 6.49373 13.5032 6.3877C13.3993 6.28167 13.3173 6.15612 13.2621 6.01828C13.207 5.88044 13.1796 5.73304 13.1817 5.58458C13.1837 5.43611 13.2151 5.28953 13.2741 5.15327C13.3331 5.017 13.4185 4.89377 13.5253 4.79066C13.6321 4.68755 13.7583 4.60661 13.8966 4.5525C15.2206 4.02238 16.6902 3.98125 18.0418 4.43648C19.3935 4.89171 20.5387 5.81352 21.2723 7.03664C22.0058 8.25976 22.2797 9.70418 22.0448 11.1109C21.8099 12.5177 21.0815 13.7947 19.9903 14.7131C21.4617 15.3784 22.7367 16.4116 23.6925 17.7131C23.8673 17.9539 23.9396 18.2541 23.8936 18.5481C23.8475 18.842 23.6869 19.1057 23.4469 19.2816Z" fill="#6E6E91"/>
</svg>
