<svg width="24" height="24" viewBox="0 0 24 24" fill="none" xmlns="http://www.w3.org/2000/svg">
<path d="M11.7356 14.7131C12.6779 13.9211 13.3537 12.8585 13.6715 11.6694C13.9894 10.4802 13.9338 9.22209 13.5123 8.06562C13.0908 6.90915 12.3238 5.91028 11.3154 5.20449C10.307 4.4987 9.10588 4.12013 7.87499 4.12013C6.64411 4.12013 5.44301 4.4987 4.43458 5.20449C3.42615 5.91028 2.65919 6.90915 2.23771 8.06562C1.81623 9.22209 1.76063 10.4802 2.07845 11.6694C2.39627 12.8585 3.07213 13.9211 4.01437 14.7131C2.54304 15.3784 1.26798 16.4116 0.312181 17.7131C0.135646 17.9537 0.0619041 18.2545 0.107177 18.5494C0.152449 18.8444 0.313028 19.1092 0.553587 19.2858C0.794147 19.4623 1.09498 19.5361 1.38991 19.4908C1.68484 19.4455 1.94971 19.2849 2.12624 19.0444C2.78788 18.1407 3.65321 17.4058 4.65203 16.8992C5.65086 16.3926 6.75504 16.1286 7.87499 16.1286C8.99495 16.1286 10.0991 16.3926 11.098 16.8992C12.0968 17.4058 12.9621 18.1407 13.6237 19.0444C13.8003 19.2851 14.0652 19.4458 14.3602 19.4911C14.6552 19.5365 14.9562 19.4628 15.1969 19.2863C15.4376 19.1097 15.5983 18.8448 15.6436 18.5498C15.689 18.2548 15.6153 17.9538 15.4387 17.7131C14.4824 16.4118 13.2071 15.3786 11.7356 14.7131ZM4.12499 10.125C4.12499 9.38332 4.34493 8.6583 4.75698 8.04161C5.16904 7.42493 5.75471 6.94428 6.43993 6.66045C7.12515 6.37662 7.87915 6.30236 8.60658 6.44705C9.33401 6.59175 10.0022 6.9489 10.5266 7.47335C11.0511 7.9978 11.4082 8.66598 11.5529 9.39341C11.6976 10.1208 11.6234 10.8748 11.3395 11.5601C11.0557 12.2453 10.5751 12.831 9.95838 13.243C9.3417 13.6551 8.61667 13.875 7.87499 13.875C6.88043 13.875 5.9266 13.4799 5.22334 12.7767C4.52008 12.0734 4.12499 11.1196 4.12499 10.125ZM23.4469 19.2816C23.3278 19.3691 23.1926 19.4323 23.0491 19.4675C22.9055 19.5028 22.7565 19.5094 22.6104 19.487C22.4643 19.4647 22.324 19.4137 22.1976 19.3371C22.0713 19.2605 21.9612 19.1598 21.8737 19.0406C21.2105 18.1387 20.3448 17.4051 19.3463 16.8987C18.3479 16.3923 17.2445 16.1273 16.125 16.125C15.8266 16.125 15.5405 16.0065 15.3295 15.7955C15.1185 15.5845 15 15.2984 15 15C15 14.7016 15.1185 14.4155 15.3295 14.2045C15.5405 13.9935 15.8266 13.875 16.125 13.875C16.6771 13.8744 17.2223 13.7518 17.7216 13.516C18.2209 13.2803 18.662 12.9372 19.0134 12.5113C19.3647 12.0853 19.6177 11.5871 19.7542 11.0521C19.8907 10.5171 19.9074 9.9585 19.803 9.41629C19.6987 8.87409 19.4759 8.36162 19.1505 7.91549C18.8252 7.46936 18.4054 7.10058 17.921 6.83548C17.4367 6.57038 16.8998 6.41552 16.3486 6.38194C15.7975 6.34837 15.2458 6.43691 14.7328 6.64125C14.5954 6.69751 14.4482 6.72602 14.2997 6.72512C14.1513 6.72423 14.0044 6.69395 13.8677 6.63604C13.731 6.57813 13.6071 6.49373 13.5032 6.3877C13.3992 6.28167 13.3173 6.15612 13.2621 6.01828C13.2069 5.88044 13.1796 5.73304 13.1816 5.58458C13.1837 5.43611 13.2151 5.28953 13.2741 5.15327C13.3331 5.017 13.4184 4.89377 13.5253 4.79066C13.6321 4.68755 13.7583 4.60661 13.8966 4.5525C15.2206 4.02238 16.6902 3.98125 18.0418 4.43648C19.3934 4.89171 20.5387 5.81352 21.2722 7.03664C22.0058 8.25976 22.2797 9.70418 22.0447 11.1109C21.8098 12.5177 21.0815 13.7947 19.9903 14.7131C21.4616 15.3784 22.7367 16.4116 23.6925 17.7131C23.8673 17.9539 23.9396 18.2541 23.8935 18.5481C23.8475 18.842 23.6869 19.1057 23.4469 19.2816Z" fill="#6E6E91"/>
</svg>
