<svg width="629" height="195" viewBox="0 0 629 195" fill="none" xmlns="http://www.w3.org/2000/svg">
<path fill-rule="evenodd" clip-rule="evenodd" d="M750 0L733.233 27.0833C716.467 54.1667 682.933 108.333 649.4 119.167C615.867 130 582.333 97.5 548.8 92.0833C515.267 86.6667 481.733 108.333 448.2 86.6667C414.667 65 381.133 0 347.6 0C314.067 0 280.533 65 247 81.25C213.467 97.5 179.933 65 146.4 43.3333C112.867 21.6667 79.3334 10.8333 45.8 37.9167C12.2667 65 -21.2667 130 -54.8 162.5C-88.3333 195 -121.867 195 -155.4 178.75C-188.933 162.5 -222.467 130 -239.233 113.75L-256 97.5V195H-239.233C-222.467 195 -188.933 195 -155.4 195C-121.867 195 -88.3333 195 -54.8 195C-21.2667 195 12.2667 195 45.8 195C79.3334 195 112.867 195 146.4 195C179.933 195 213.467 195 247 195C280.533 195 314.067 195 347.6 195C381.133 195 414.667 195 448.2 195C481.733 195 515.267 195 548.8 195C582.333 195 615.867 195 649.4 195C682.933 195 716.467 195 733.233 195H750V0Z" fill="url(#paint0_linear_203_1221)" fill-opacity="0.25"/>
<defs>
<linearGradient id="paint0_linear_203_1221" x1="247" y1="0" x2="247" y2="195" gradientUnits="userSpaceOnUse">
<stop stop-color="#006AFF"/>
<stop offset="1" stop-color="#1F7DFF" stop-opacity="0"/>
</linearGradient>
</defs>
</svg>
