<svg width="629" height="194" viewBox="0 0 629 194" fill="none" xmlns="http://www.w3.org/2000/svg">
<path d="M750 2L733.233 29.1657C716.467 56.3314 682.933 110.663 649.4 121.529C615.867 132.395 582.333 99.7965 548.8 94.3634C515.267 88.9303 481.733 110.663 448.2 88.9303C414.667 67.1977 381.133 2 347.6 2C314.067 2 280.533 67.1977 247 83.4971C213.467 99.7965 179.933 67.1977 146.4 45.4651C112.867 23.7326 79.3334 12.8663 45.8 40.032C12.2667 67.1977 -21.2666 132.395 -54.8 164.994C-88.3333 197.593 -121.867 197.593 -155.4 181.294C-188.933 164.994 -222.467 132.395 -239.233 116.096L-256 99.7965" stroke="#006AFF" stroke-width="3"/>
</svg>
